<?xml version="1.0" encoding="utf-8"?>

<!DOCTYPE svg PUBLIC "-//W3C//DTD SVG 1.1//EN" "http://www.w3.org/Graphics/SVG/1.1/DTD/svg11.dtd">
<svg version="1.1" id="Layer_1" xmlns="http://www.w3.org/2000/svg" xmlns:xlink="http://www.w3.org/1999/xlink" x="0px" y="0px"
	 viewBox="0 0 1734.167 1626.179" enable-background="new 0 0 1734.167 1626.179" xml:space="preserve">
<g>
	<path fill="none" stroke="#000000" stroke-width="5" stroke-linecap="round" stroke-linejoin="round" stroke-miterlimit="10" d="
		M842.224,1204.833c2.925-2.06,2.991-5.565,3.413-8.424c0.627-4.241,2.728-7.663,4.13-11.462c2.104-5.701,2.537-11.998,4.403-17.915
		c30.571-96.914-107.454-283.584-225.462-277.62c-5,0.253-9.915,2.437-14.997,0.542"/>
	<path fill="none" stroke="#000000" stroke-width="5" stroke-linecap="round" stroke-linejoin="round" stroke-miterlimit="10" d="
		M872.213,1166.447c-1.535-6.364,2.603-11.562,3.837-17.343c18.118-84.906-58.697-196.056-133.346-246.018
		c-28.649-19.175-71.873-36.887-103.225-28.213c-1.838,0.508-4.051,0.446-5.974-0.515"/>
	<path fill="none" stroke="#000000" stroke-width="5" stroke-linecap="round" stroke-linejoin="round" stroke-miterlimit="10" d="
		M996.965,16.089c-6.475-0.285-9.54,5.317-13.673,8.552c-102.113,79.956-157.844,126.766-235.844,187.557
		c-4.26,3.32-5.735,6.666-4.43,12.664c5.191,23.862,9.365,47.943,14.097,71.908c1.04,5.266,1.217,10.818,4.14,15.606"/>
	<path fill="none" stroke="#000000" stroke-width="5" stroke-linecap="round" stroke-linejoin="round" stroke-miterlimit="10" d="
		M592.72,893.552c5.804,4.612,13.086,5.439,19.753,7.904c79.336,29.335,144.504,100.752,187.526,174.567
		c38.665,66.339,38.064,123.387,38.064,123.387c4.701,6.902,1.117,13.999,0.561,21.016c-0.573,7.23-3.065,14.028-4.631,21.029
		c-2.914,13.027-7.832,24.746-17.549,34.159c-8.237,7.979-8.665,4.221-12.097,7.696c-25.692,26.012-39.336,32.535-172.584,143.505
		c-8.953,7.456-17.29,15.838-27.161,21.937c-13.032,8.052-22.437,20.089-34.551,29.136c-15.246,11.385-29.243,24.396-44.458,35.885
		c-15.246,11.511-18.112,18.033-25.235,18.534"/>
	<path fill="none" stroke="#000000" stroke-width="5" stroke-linecap="round" stroke-linejoin="round" stroke-miterlimit="10" d="
		M1197.888,770.599c-9.012,4.645-16.17,11.909-24.578,17.413c-10.846,7.099-12.545,12.238-18.149,7.965
		c-0.902-0.688-3.652,0.878-5.27,2.193c-1,0.813-209.558,169.077-241.797,194.21c-6.546,5.104-3.161,6.812-4.227,46.912
		c-0.091,3.422,2.491,6.801,0.133,10.2"/>
	<path fill="none" stroke="#000000" stroke-width="5" stroke-linecap="round" stroke-linejoin="round" stroke-miterlimit="10" d="
		M481.763,553.482c-1.985,5.72,3.776-1.141-121.131,98.391c-51.089,40.71-71.346,57.6-117.575,94.138
		c-2.782,2.198-5.679,4.174-7.894,7.123c-1.871,2.491-4.33,3.006-7.761,1.396c-53.257-24.99-73.48-30.659-94.105-42.109"/>
	<path fill="none" stroke="#000000" stroke-width="5" stroke-linecap="round" stroke-linejoin="round" stroke-miterlimit="10" d="
		M1100.125,736.412c-26.614-29.344-31.887-36.459-56.685-55.99c-6.304-4.965-12.983-10.399-21.176-13.294
		c-6.864-2.425-16.191-15.387-28.31-5.703c-1,0.799-236.182,188.241-244.029,196.205c-1.385,1.405-2.787,1.008-4.264,1.134"/>
	<path fill="none" stroke="#000000" stroke-width="5" stroke-linecap="round" stroke-linejoin="round" stroke-miterlimit="10" d="
		M995.766,387.346c-6.161,1.447,13.523-13.11-250.676,197.959c-1.31,1.047-2.636,1.609-4.226,1.765"/>
	<path fill="none" stroke="#000000" stroke-width="5" stroke-linecap="round" stroke-linejoin="round" stroke-miterlimit="10" d="
		M984.37,291.983c-8.309,2.614-247.433,198.504-254.302,200.323"/>
	<path fill="none" stroke="#000000" stroke-width="5" stroke-linecap="round" stroke-linejoin="round" stroke-miterlimit="10" d="
		M235.257,1221.626c-8.923,7.076-13.676-3.923-48.61-8.16c-15.158-1.838-30.298-0.47-45.637,1.516
		c-12.364,1.601-19.908,8.148-27.359,15.784c-7.329,7.51-11.015,17.324-14.039,27.417c-5.544,18.504-7.78,37.448-4.808,56.33
		c1.119,7.107,0.166,14.76,3.877,21.892c1.625,3.124-0.116,8.475,0.901,13c26.071,115.978,159.028,263.821,270.623,263.684
		c35.48-0.044,47.504-11.35,65.998-27.376c4.793-4.153,10.781-6.506,15.661-10.719c24.189-20.885,33.456-25.321,46.429-41.105
		c2.837-3.452,3.53-8.688,5.426-13.08c17.268-40.007,8.477-93.19-6.765-134.32c-18.49-49.896-48.62-92.7-83.524-131.913
		c-40.837-45.879-92.341-84.433-151.823-97.543c-3.792-0.836-7.837-2.179-11.955-1.383"/>
	<path fill="none" stroke="#000000" stroke-width="5" stroke-linecap="round" stroke-linejoin="round" stroke-miterlimit="10" d="
		M1026.953,470.714c-8.922,4.171-139.299,111.58-246.685,195.295c-7.558,5.892-8.275,8.796-29.421,89.098
		c-2.383,9.047-7.007,17.662-6.873,27.49c0.041,3.025,0.571,5.972,0.596,8.993c0.177,22.191-0.844,44.393,0.448,66.578
		c0.127,2.18-0.356,4.396-0.556,6.595"/>
	<path fill="none" stroke="#000000" stroke-width="5" stroke-linecap="round" stroke-linejoin="round" stroke-miterlimit="10" d="
		M751.659,683.633c-2.283,1.82-244.815,194.824-251.304,201.523"/>
	<path fill="none" stroke="#000000" stroke-width="5" stroke-linecap="round" stroke-linejoin="round" stroke-miterlimit="10" d="
		M1013.759,114.451c-6.829,0.904-10.658,6.609-15.459,10.369c-46.476,36.402-154.253,123.685-232.428,184.925
		c-4.988,3.908-6.575,8.203-7.571,13.435c-6.354,33.347-12.265,67.543-13.095,73.702c-1.103,8.189-3.818,16.403-5.476,24.665
		c-15.555,77.511-11.593,60.976-10.06,78.539c2.325,26.631,5.203,53.22,8.293,79.776c1.412,12.136,6.646,20.012,33.364,84.63
		c0.67,1.621,2.221,2.464,2.523,4.147"/>
	<path fill="none" stroke="#000000" stroke-width="5" stroke-linecap="round" stroke-linejoin="round" stroke-miterlimit="10" d="
		M383.4,510.299c-59.676,48.826-158.513,126.036-248.882,198.552c-1.712,1.373-2.266,4.404-5.42,3.57"/>
	<path fill="none" stroke="#000000" stroke-width="5" stroke-linecap="round" stroke-linejoin="round" stroke-miterlimit="10" d="
		M1238.073,879.158c-18.905,18.138-234.676,185.496-250.704,201.523"/>
	<path fill="none" stroke="#000000" stroke-width="5" stroke-linecap="round" stroke-linejoin="round" stroke-miterlimit="10" d="
		M1551.152,999.112c-133.494,107.657-167.8,132.77-251.903,200.923"/>
	<path fill="none" stroke="#000000" stroke-width="5" stroke-linecap="round" stroke-linejoin="round" stroke-miterlimit="10" d="
		M690.483,635.651c-0.484,0.4-251.279,200.86-251.903,200.923"/>
	<path fill="none" stroke="#000000" stroke-width="5" stroke-linecap="round" stroke-linejoin="round" stroke-miterlimit="10" d="
		M629.906,587.669c-15.387,13.988-229.557,182.659-250.704,200.923"/>
	<path fill="none" stroke="#000000" stroke-width="5" stroke-linecap="round" stroke-linejoin="round" stroke-miterlimit="10" d="
		M997.565,13.09c5.594,26.293,14.252,67.599,18.326,93.606c1.223,7.805-1.146,16.009-2.685,23.958
		c-13.047,67.431-10.409,67.271-19.039,71.75c-8.071,4.188-238.266,189.303-242.416,192.847c-1.778,1.518-3.736,1.388-5.49,2.292"/>
	<path fill="none" stroke="#000000" stroke-width="5" stroke-linecap="round" stroke-linejoin="round" stroke-miterlimit="10" d="
		M1621.925,1045.894c0,0-229.809,183.683-245.966,196.65c-1.569,1.259-2.881,2.409-3.538,4.273"/>
	<path fill="none" stroke="#000000" stroke-width="5" stroke-linecap="round" stroke-linejoin="round" stroke-miterlimit="10" d="
		M1495.974,964.925c-4.392,6.974-1.003,2.526-100.149,81.584c-154.163,122.928-145.58,115.755-148.155,119.339"/>
	<path fill="none" stroke="#000000" stroke-width="5" stroke-linecap="round" stroke-linejoin="round" stroke-miterlimit="10" d="
		M1720.288,1084.879c-2.451-0.905-4.202,0.183-6.022,1.772c-19.723,17.222-40.561,33.059-61.109,49.264
		c0,0-177.148,142.43-184.151,148.115c-0.971,0.788-1.622,1.972-2.421,2.971"/>
	<path fill="none" stroke="#000000" stroke-width="5" stroke-linecap="round" stroke-linejoin="round" stroke-miterlimit="10" d="
		M1157.703,843.171c-248.699,203.796-247.1,197.222-248.305,202.722"/>
	<path fill="none" stroke="#000000" stroke-width="5" stroke-linecap="round" stroke-linejoin="round" stroke-miterlimit="10" d="
		M1401.21,952.929c-4.139,6.37-0.072,1.54-98.95,80.385c-156.403,124.714-146.784,116.16-146.956,119.339"/>
	<path fill="none" stroke="#000000" stroke-width="5" stroke-linecap="round" stroke-linejoin="round" stroke-miterlimit="10" d="
		M557.933,571.476c-4.875,6.961-2.696,3.423-80.958,65.988C301.103,778.062,315.002,766.083,310.828,771.199"/>
	<path fill="none" stroke="#000000" stroke-width="5" stroke-linecap="round" stroke-linejoin="round" stroke-miterlimit="10" d="
		M1000.564,570.876c-3.545-1.811-6.012,0.548-8.371,2.432C737.044,777.066,752.871,765.704,749.86,764.002"/>
	<path fill="none" stroke="#000000" stroke-width="5" stroke-linecap="round" stroke-linejoin="round" stroke-miterlimit="10" d="
		M1301.648,942.733c-84.083,66.687-16.59,12.995-241.077,191.965c-1.635,1.304-2.83,3.16-4.229,4.759"/>
	<path fill="none" stroke="#000000" stroke-width="5" stroke-linecap="round" stroke-linejoin="round" stroke-miterlimit="10" d="
		M310.228,1497.52c3.729-3.358,9.083-4.06,12.656-7.738c0.421-0.433,1.176-0.5,1.842-1.153c4.143-4.066,7.777-8.442,12.837-11.877
		c6.479-4.398,7.523-12.868,8.041-20.617c1.711-25.562-8.637-47.464-22.396-67.626c-13.418-19.662-29.787-36.915-51.393-48.074
		c-13.68-7.066-27.996-12.507-43.707-8.275c-5.502,1.482-11.953,2.22-14.645,9.343c-1.332,3.526-5.266,6.294-7.962,8.653
		c-4.564,3.994-5.945,9.592-9.828,13.616"/>
	<path fill="none" stroke="#000000" stroke-width="5" stroke-linecap="round" stroke-linejoin="round" stroke-miterlimit="10" d="
		M683.285,981.718c-121.04,96.832-68.048,54.331-202.722,162.538"/>
	<path fill="none" stroke="#000000" stroke-width="5" stroke-linecap="round" stroke-linejoin="round" stroke-miterlimit="10" d="
		M742.663,784.394c-4.603-0.248-6.628,3.947-9.451,6.181c-91.642,72.503-82.33,66.981-116.55,94.519
		c-2.662,2.142-3.183,7.305-8.356,6.098c-1.138-0.265-2.585,0.355-3.549-0.121c-2.025-1-4.277-0.932-6.003-0.403
		c-21.296,6.521-33.105-3.184-69.023,4.62c-19.674,4.274-24.888,19.584-39.05,28.122c-11.35,6.842-20.739,16.099-31.049,24.199
		c-41.437,32.553-96.825,78.58-109.237,88.667c-13.908,11.302-28.976,21.404-41.604,33.973c-8.09,8.052-17.909,13.172-26.215,20.558
		c-9.119,8.109-18.806,15.576-28.079,23.516c-2.754,2.358-5.953,3.696-9.043,5.343"/>
	<path fill="none" stroke="#000000" stroke-width="5" stroke-linecap="round" stroke-linejoin="round" stroke-miterlimit="10" d="
		M382.801,1550.9c-12.215,11.025-27.313,12.932-42.57,11.814c-56.652-4.15-108.212-46.714-143.302-91.029
		c-0.824-1.041-1.229-0.317-1.856-0.255"/>
	<path fill="none" stroke="#000000" stroke-width="5" stroke-linecap="round" stroke-linejoin="round" stroke-miterlimit="10" d="
		M683.285,980.519c-36.075-32.483-86.048-62.442-131.98-66.859c-14.344-1.379-29.081-2.115-43.195,3.172
		c-1.905,0.714-4.473,0.998-6.556-0.488"/>
	<path fill="none" stroke="#000000" stroke-width="5" stroke-linecap="round" stroke-linejoin="round" stroke-miterlimit="10" d="
		M776.849,1294.798c-86.914,71.976-130.204,108.264-163.197,134.875c-5.56,4.484-12.039,7.595-14.055,15.587
		c-0.547,2.17-1.266,4.374-1.48,6.678"/>
	<path fill="none" stroke="#000000" stroke-width="5" stroke-linecap="round" stroke-linejoin="round" stroke-miterlimit="10" d="
		M1207.484,793.99c-4.972,0.542-7.771,4.598-11.34,7.271c-12.321,9.228-23.706,19.681-36.645,28.109
		c-4.08,2.658-1.791,6.76-2.379,10.204c-0.469,2.748,1.726,3.389,3.586,4.188c72.495,31.168,78.998,32.911,90.65,43.695
		c17.143,15.865,34.965,31,51.957,47.021c6.544,6.169,14.385,5.024,21.754,6.299c11.716,2.027,23.608,2.959,35.377,4.844
		c10.713,1.716,21.755,1.669,32.32,3.942c10.767,2.316,21.711,1.944,32.452,3.887c4.43,0.801,48.719,6.459,56.375,7.162
		c5.737,0.528,11.088,2.58,16.772,3.215c2.13,0.238,4.118,1.425,6.08,2.793c27.471,19.152,77.789,51.14,113.292,75.063
		c8.28,5.579,18.133,7.641,27.052,11.858c10.354,4.895,21.172,8.868,31.821,13.083c11.016,4.36,21.593,9.779,32.86,13.528
		c2.403,0.799,5.167,1.694,6.022,4.724"/>
	<path fill="none" stroke="#000000" stroke-width="5" stroke-linecap="round" stroke-linejoin="round" stroke-miterlimit="10" d="
		M210.667,1460.335c24.61,25.782,47.27,53.386,88.814,67.634c15.514,5.321,31.541,8.199,47.939,3.156
		c13.431-4.131,22.464-11.745,26.074-26.335c5.243-21.191,3.948-54.847-10.871-82.634c-4.372-8.197-9.996-15.938-14.686-24.152
		c-11.113-19.462-25.106-36.837-40.877-52.654c-14.904-14.947-19.964-14.839-23.373-22.292c-1.435-3.138-5.505-4.047-8.17-6.161
		c-13.894-11.025-30.037-17.24-46.9-21.317c-14.516-3.509-29.416-4.267-43.716,1.675c-29.149,12.111-34.381,86.656,23.389,158.865
		c0.885,1.107,1.84,2.086,1.778,3.616"/>
	<path fill="none" stroke="#000000" stroke-width="5" stroke-linecap="round" stroke-linejoin="round" stroke-miterlimit="10" d="
		M235.857,1220.727c0.6,0.1,1.7,0.125,1.727,0.311c1.21,8.058,7.872,10.607,13.872,13.774
		c33.619,17.747,68.919,41.473,112.784,94.747c37.099,45.057,68.19,99.452,77.758,146.407c2.336,11.463,5.278,22.847,5.764,34.742
		c0.788,19.267,1.645,42.599-8.021,64.766c-1.053,2.416-1.798,4.695-0.563,7.214"/>
	<path fill="none" stroke="#000000" stroke-width="5" stroke-linecap="round" stroke-linejoin="round" stroke-miterlimit="10" d="
		M742.063,1038.696c3.602,7.818,9.691,13.929,14.489,20.927c44.211,64.491,57.272,120.762,54.485,126.616"/>
	<path fill="none" stroke="#000000" stroke-width="5" stroke-linecap="round" stroke-linejoin="round" stroke-miterlimit="10" d="
		M706.976,1245.617c0.914,1.663,1.862,3.687-0.33,4.735c-9.883,4.721-17.258,12.756-25.681,19.356
		c-16.659,13.056-32.667,26.947-49.39,39.917c-4.591,3.561-5.281,6.607-3.545,11.59c2.304,6.616,2.06,13.894,5.105,20.398
		c1.056,2.256-0.047,4.839-2.084,5.857c-4.083,2.041-7.389,4.923-10.783,7.858c-6.348,5.489-11.85,3.695-13.717-4.459
		c-9.577-41.832-25.023-79.83-55.192-123.261c-53.632-77.208-141.388-157.766-235.123-150.984
		c-4.217,0.305-8.297,2.562-12.605,0.458"/>
	<path fill="none" stroke="#000000" stroke-width="5" stroke-linecap="round" stroke-linejoin="round" stroke-miterlimit="10" d="
		M248.752,1357.774c-0.1-0.2-0.205-0.577-0.299-0.574c-9.402,0.253-19.118-2.3-28.121,1.344
		c-7.217,2.921-8.881,10.342-10.184,17.239c-0.974,5.157,0.064,10.563-2.354,15.639c-1.021,2.143,2.373,3.042,3.03,5.292
		c5.278,18.062,9.002,25.319,19.025,39.638c12.047,17.211,23.475,26.603,38.976,36.011c10.375,6.297,22.667,8.17,33.633,6.104
		c10.905-2.055,13.909-9.509,15.513-18.141c1.138-6.122-1.129-15.644,6.652-15.682c2.991-0.015,4.456-4.551,2.978-8.891
		c-5.292-15.54-13.346-28.936-22.773-41.989c-2.509-3.474-5.655-5.555-10.196-4.816c-8.926,1.454-7.744-8.84-35.39-25.165
		c-3.16-1.866-7.196-2.178-9.591-5.408"/>
	<path fill="none" stroke="#000000" stroke-width="5" stroke-linecap="round" stroke-linejoin="round" stroke-miterlimit="10" d="
		M285.038,1327.186c-4.981,2.286-8.85-0.778-12.548-3.076c-17.316-10.76-44.739-18.361-63.597-10.06
		c-6.03,2.654-9.585,7.613-12.104,13.701c-4.09,9.885-6.405,20.479-4.263,30.526c1.965,9.216,2.923,18.456,4.422,27.673
		c0.894,5.495,5.09,6.932,10.12,6.61"/>
	<path fill="none" stroke="#000000" stroke-width="5" stroke-linecap="round" stroke-linejoin="round" stroke-miterlimit="10" d="
		M1316.642,486.308c13.574,7.138,25.698,16.302,35.91,27.658c24.072,26.769,40.613,53.746,40.267,89.897
		c-0.032,3.315-2.298,5.641-3.585,8.406c-0.865,1.859-3.229,4.328,0.612,5.261c2.349,0.571,5.993,3.934,7.201-1.663
		c0.141-0.656,0.765-1.207,1.165-1.807"/>
	<path fill="none" stroke="#000000" stroke-width="5" stroke-linecap="round" stroke-linejoin="round" stroke-miterlimit="10" d="
		M356.411,1415.952c-3.367,6.023,0.446,11.307,1.838,16.784c4.264,16.771,6.452,33.478,0.605,50.406
		c-4.192,12.135-13.601,16.961-25.227,19.215c-6.039,1.171-12.003-0.163-18-0.039c-0.4,0.008-0.914,0.165-1.183-0.023
		c-9.74-6.799-21.988-5-32.46-9.442c-3.089-1.311-5.985-2.554-8.341-4.929"/>
	<path fill="none" stroke="#000000" stroke-width="5" stroke-linecap="round" stroke-linejoin="round" stroke-miterlimit="10" d="
		M707.876,1251.015c2.581,4.667,2.589,10.051,4.047,15.039c0.632,2.163,0.385,4.383,2.49,6.03c0.954,0.747,2.066,2.641,1.738,3.474
		c-4.415,11.189,1.198,22.447-0.404,33.646c-2.094,14.638,2.096,14.757-4.868,20.386c-82.459,66.645-64.603,52.686-79.173,62.971"/>
	<path fill="none" stroke="#000000" stroke-width="5" stroke-linecap="round" stroke-linejoin="round" stroke-miterlimit="10" d="
		M1265.062,633.852c-29.789,23.391-59.595,46.759-89.329,70.219c-7.281,5.744-4.496-3.289-27.569-27.091
		c-1.998-2.061-0.108-3.379,1.701-4.795c13.67-10.7,27.213-21.562,40.83-32.329c14.28-11.29,29.405-21.519,42.606-34.165
		c3.302-3.163,7.124-2.996,10.77-0.03c6.172,5.021,11.246,10.918,15.057,17.96c1.474,2.723,2.565,5.974,5.934,7.232"/>
	<path fill="none" stroke="#000000" stroke-width="5" stroke-linecap="round" stroke-linejoin="round" stroke-miterlimit="10" d="
		M160.286,1269.608c6.66-5.368,14.926-6.373,22.806-7.011c83.848-6.796,174.121,89.662,203.839,163.578
		c14.575,36.251,14.043,55.517,16.861,70.746"/>
	<path fill="none" stroke="#000000" stroke-width="5" stroke-linecap="round" stroke-linejoin="round" stroke-miterlimit="10" d="
		M977.772,1083.679c-31.588,25.39-63.006,50.996-94.872,76.032c-25.872,20.327-26.831,24.598-31.079,22.93"/>
	<path fill="none" stroke="#000000" stroke-width="5" stroke-linecap="round" stroke-linejoin="round" stroke-miterlimit="10" d="
		M998.165,202.017c1.262,8.087-1.662,15.654-3.063,23.379c-10.784,59.482-11.724,51.051-9.109,70.209
		c2.119,15.523,3.41,31.16,4.964,46.759c5.392,54.135,1.849,34.958,12.014,59.373c8.576,20.601,17.136,41.209,25.822,61.763
		c1.952,4.619,0.04,9.269-0.961,13.128c-27.772,107.118-28.212,86.67-26.947,120.625c0.138,3.691-2.174,7.888,0.88,11.408"/>
	<path fill="none" stroke="#000000" stroke-width="5" stroke-linecap="round" stroke-linejoin="round" stroke-miterlimit="10" d="
		M1049.145,1144.256c2.46-3.755,4.722-5.703,9.758-2.668c3.345,2.016,8.23,1.509,12.434,2.061
		c208.308,27.358,166.671,17.391,187.735,31.184c144.594,94.685,97.394,67.003,140.941,85.172
		c20.182,8.421,40.392,16.776,60.559,25.234c2.048,0.859,4.865,0.261,6.013,2.962"/>
	<path fill="none" stroke="#000000" stroke-width="5" stroke-linecap="round" stroke-linejoin="round" stroke-miterlimit="10" d="
		M574.127,1264.81c-4.472,3.203-91.708,73.357-95.963,76.771"/>
	<path fill="none" stroke="#000000" stroke-width="5" stroke-linecap="round" stroke-linejoin="round" stroke-miterlimit="10" d="
		M591.521,1305.594c-9.383,5.86-69.058,55.464-89.996,72.535c-1.57,1.28-3.568,2.036-5.368,3.036"/>
	<path fill="none" stroke="#000000" stroke-width="5" stroke-linecap="round" stroke-linejoin="round" stroke-miterlimit="10" d="
		M442.178,1117.866c-104.205,84.324-90.293,72.725-94.164,77.37"/>
	<path fill="none" stroke="#000000" stroke-width="5" stroke-linecap="round" stroke-linejoin="round" stroke-miterlimit="10" d="
		M1172.698,621.856c20.935-1.452,40.989-32.707,21.592-31.776c-12.179,0.585-25.637,12.46-29.333,22.201
		c-2.282,6.014-0.014,8.97,7.141,10.175"/>
	<path fill="none" stroke="#000000" stroke-width="5" stroke-linecap="round" stroke-linejoin="round" stroke-miterlimit="10" d="
		M859.018,784.994c0.782-5.277,5.848-6.689,9.101-9.475c25.001-21.413,50.284-42.496,75.455-63.712
		c2.532-2.134,4.974-2.25,7.822-0.608c18.452,10.637,35.436,23.254,50.941,37.837c5.076,4.774,5.061,5.526-0.602,10.133
		c-30.229,24.598-50.185,40.051-82.115,66.639c-2.621,2.183-7.783,2.325-6.623,7.767"/>
	<path fill="none" stroke="#000000" stroke-width="5" stroke-linecap="round" stroke-linejoin="round" stroke-miterlimit="10" d="
		M1325.639,592.468c-1.584,1.093-2.88,0.081-4.196-0.605c-13.54-7.057-25.898-3.32-37.779,4.217
		c-10.519,6.673-14.698,16.757-16.452,28.739c-0.806,5.507,1.179,10.833,0.383,15.552c-1.265,7.499,3.75,12.864,4.077,19.842
		c0.293,6.231,4.797,12.603,6.569,19.225c4.738,17.697,6.57,35.335-1.14,52.795c-0.98,2.218-1.3,4.707-0.644,7.178"/>
	<path fill="none" stroke="#000000" stroke-width="5" stroke-linecap="round" stroke-linejoin="round" stroke-miterlimit="10" d="
		M1388.615,618.258c-3.137,9.473-12.075,13.555-18.707,19.669c-6.68,6.159-13.843,12.031-21.563,16.779
		c-20.341,12.511-29.158,34.483-43.592,51.807c-21.711,26.059,1.794,12.981-84.122,80.82c-3.447,2.721-6.431,7.033-11.948,5.458"/>
	<path fill="none" stroke="#000000" stroke-width="5" stroke-linecap="round" stroke-linejoin="round" stroke-miterlimit="10" d="
		M644.3,1121.465c0.807,3.924-2.481,4.345-4.717,6.101c-11.173,8.771-22.2,17.739-33.037,26.924
		c-14.296,12.116-29.675,22.927-43.272,35.889c-0.369,0.352-1.739,0.446-2.342-0.54"/>
	<path fill="none" stroke="#000000" stroke-width="5" stroke-linecap="round" stroke-linejoin="round" stroke-miterlimit="10" d="
		M677.887,1180.242c-76.873,62.668-72.793,59.879-79.769,64.175"/>
	<path fill="none" stroke="#000000" stroke-width="5" stroke-linecap="round" stroke-linejoin="round" stroke-miterlimit="10" d="
		M1186.492,569.076c3.054-6.654,8.947-11.072,13.234-16.764c6.856-9.103,15.918-16.335,21.142-26.926
		c3.783-7.669,11.314-5.792,18.417-5.02c42.85,4.655,85.35,52.627,96.631,93.67c1.426,5.188-2.301,8.77-3.302,13.167
		c-3.736,16.419-13.363,28.365-29.804,33.523c-8.662,2.718-17.321,1.529-25.136-3.513c-1.705-1.1-3.375-2.115-5.416-2.371"/>
	<path fill="none" stroke="#000000" stroke-width="5" stroke-linecap="round" stroke-linejoin="round" stroke-miterlimit="10" d="
		M374.404,1134.06c-1.36,0.08-2.42-0.2-3.65-1.131c-8.12-6.145-17.863-9.523-26.283-15.145c-2.748-1.835-5.37-1.228-7.17,0.187
		c-13.745,10.805-27.276,21.881-40.849,32.904c-0.534,0.434-0.817,1.178-1.217,1.778"/>
	<path fill="none" stroke="#000000" stroke-width="5" stroke-linecap="round" stroke-linejoin="round" stroke-miterlimit="10" d="
		M905.8,1046.493c6.482-0.051,11.189,4.469,16.724,6.766c21.164,8.781,41.985,18.387,63.092,27.311
		c5.488,2.32,8.809,6.947,12.981,10.503c16.798,14.32,32.969,29.377,49.327,44.21c1.564,1.418,2.821,3.175,4.22,4.774"/>
	<path fill="none" stroke="#000000" stroke-width="5" stroke-linecap="round" stroke-linejoin="round" stroke-miterlimit="10" d="
		M243.654,1185.64c4.036-4.676,3.692-10.71,4.634-16.222c0.662-3.873,1.301-9.097,0.279-11.783
		c-3.726-9.791,1.109-19.385-1.142-29.014c-2.289-9.793-5.109-13.987-14.59-16.046c-2.479-0.538-5.644-1.024-7.727,1.137
		c-5.431,5.637-11.045,11.224-8.5,20.363c2.952,10.598-10.263,21.432-19.667,27.089c-11.26,6.773-20.036,16.776-30.568,24.597
		c-10.013,7.436-19.219,15.952-28.933,23.803c-1.908,1.542-3.305,3.026-3.544,5.465"/>
	<path fill="none" stroke="#000000" stroke-width="5" stroke-linecap="round" stroke-linejoin="round" stroke-miterlimit="10" d="
		M235.857,755.005c3.999,3.998,9.613,3.383,14.441,4.615c31.843,8.125,60.39,12.714,60.39,12.714
		c85.79,22.494,58.039,9.802,76.179,23.628c17.303,13.188,34.119,27.017,51.112,40.612"/>
	<path fill="none" stroke="#000000" stroke-width="5" stroke-linecap="round" stroke-linejoin="round" stroke-miterlimit="10" d="
		M383.4,508.5c4.446,3.928,2.977,1.857,45.583,20.39c17.237,7.498,34.667,14.54,51.655,22.634c4.227,2.014,1.345,0.968,62.9,14.554
		c4.708,1.039,9.438,3.426,13.829,3.807c10.916,0.948,21.166,4.354,31.747,6.426c37.585,7.36,39.859,7.117,55.856,20.271
		c12.755,10.488,26.277,20.059,38.834,30.769c13.312,11.353,62.889,50.474,82.25,65.28"/>
	<path fill="none" stroke="#000000" stroke-width="5" stroke-linecap="round" stroke-linejoin="round" stroke-miterlimit="10" d="
		M1296.25,294.382c1.599,4.398,3.941,8.692,4.582,13.225c0.6,4.245,2.343,5.821,6.19,6.675c2.618,0.581,4.993,1.907,7.783,2.478
		c27.362,5.6,11.561-47.386-23.352-58.367c-15.03-4.727-21.741,15.032-3.983,38.223c8.121,10.605-2.042,21.017,0.983,42.75"/>
	<path fill="none" stroke="#000000" stroke-width="5" stroke-linecap="round" stroke-linejoin="round" stroke-miterlimit="10" d="
		M1452.19,638.05c13.719,4.646,22.456-4.192,23.321-13.202c0.667-6.952-3.083-11.475-8.87-15.078
		c-6.957-4.332-13.28-2.332-19.161,1.429c-3.885,2.485-5.539,7.936-10.855,9.006c-0.132,0.026-1.793,1.466-1.229,2.851"/>
	<path fill="none" stroke="#000000" stroke-width="5" stroke-linecap="round" stroke-linejoin="round" stroke-miterlimit="10" d="
		M1136.711,567.877c0.8,0.4,1.558,0.978,2.405,1.172c10.404,2.392,9.261,7.146,4.745,14.392
		c-5.979,9.595-14.098,16.284-25.729,18.114c-3.261,0.513-6.846,1.052-8.202-1.985c-1.607-3.6-2.531-8.956,0.005-11.704
		c7.48-8.106,15.326-16.13,26.175-19.991"/>
	<path fill="none" stroke="#000000" stroke-width="5" stroke-linecap="round" stroke-linejoin="round" stroke-miterlimit="10" d="
		M1219.48,525.893c-3.42-1.368-6.284-0.738-9.663,1.075c-58.137,31.174-59.084,28.69-59.91,33.712"/>
	<path fill="none" stroke="#000000" stroke-width="5" stroke-linecap="round" stroke-linejoin="round" stroke-miterlimit="10" d="
		M610.713,1359.573c-1.904,3.64-2.096,7.067-1.476,11.435c2.65,18.662,1.416,37.319-2.75,55.733
		c-0.508,2.244-1.786,4.404,0.027,6.604"/>
	<path fill="none" stroke="#000000" stroke-width="5" stroke-linecap="round" stroke-linejoin="round" stroke-miterlimit="10" d="
		M425.384,1523.311c11.042,1.818,14.968-1.177,13.154-10.188c-1.991-9.888-7.472-17.057-16.016-23.579
		c-6.196-4.73-12.315-3.106-18.73-2.219"/>
	<path fill="none" stroke="#000000" stroke-width="5" stroke-linecap="round" stroke-linejoin="round" stroke-miterlimit="10" d="
		M379.802,1223.426c-21.392,17.793-42.784,35.586-64.175,53.38"/>
	<path fill="none" stroke="#000000" stroke-width="5" stroke-linecap="round" stroke-linejoin="round" stroke-miterlimit="10" d="
		M439.179,837.174c84.137,68.052,75.191,60.607,76.771,62.976"/>
	<path fill="none" stroke="#000000" stroke-width="5" stroke-linecap="round" stroke-linejoin="round" stroke-miterlimit="10" d="
		M756.457,1229.423c10.371-6.219,15.841-12.811,51.013-40.743c3.874-3.076,5.237-2.485,5.937,2.362
		c3.855,26.708,4.541,53.242-4.765,79.167c-1.331,3.708-3.895,7.098-3.004,11.394"/>
	<path fill="none" stroke="#000000" stroke-width="5" stroke-linecap="round" stroke-linejoin="round" stroke-miterlimit="10" d="
		M201.07,1392.561c-1.742,2.607-2.185,5.23-1.267,8.416c4.164,14.444,10.971,27.547,19.94,39.505
		c2.525,3.366,5.725,7.069,10.716,3.059"/>
	<path fill="none" stroke="#000000" stroke-width="5" stroke-linecap="round" stroke-linejoin="round" stroke-miterlimit="10" d="
		M214.265,1342.18c2.779,2.05,6.148,1.647,8.964,1.045c6.347-1.357,12.064,1.276,17.992,2.178c3.015,0.459,5.265,3.572,7.566,6.065
		c1.116,1.208,5.321-1.021,8.771,0.688c7.384,3.659,13.756,8.61,20.255,13.452c2.372,1.767,4.385,4.009,6.633,5.951
		c6.784,5.862,13.222,11.849,10.806,22.205c-0.671,2.877,1.872,4.771,3.154,6.462c8.813,11.619,15.376,24.2,18.393,38.522
		c0.429,2.035,1.644,3.432,3.025,4.793"/>
	<path fill="none" stroke="#000000" stroke-width="5" stroke-linecap="round" stroke-linejoin="round" stroke-miterlimit="10" d="
		M854.22,789.192c-0.098-5.193,2.509-5.168,5.988-2.984c30.312,19.031,36.125,25.775,53.389,41.369"/>
	<path fill="none" stroke="#000000" stroke-width="5" stroke-linecap="round" stroke-linejoin="round" stroke-miterlimit="10" d="
		M644.3,1126.263c13.427,16.492,25.721,33.708,34.237,53.358c0.204,0.471,1.15,0.621,1.75,0.921"/>
	<path fill="none" stroke="#000000" stroke-width="5" stroke-linecap="round" stroke-linejoin="round" stroke-miterlimit="10" d="
		M563.331,1191.038c8.206,13.45,18.426,25.579,25.822,39.568c2.699,5.104,5.766,10.013,8.664,15.011"/>
	<path fill="none" stroke="#000000" stroke-width="5" stroke-linecap="round" stroke-linejoin="round" stroke-miterlimit="10" d="
		M1185.893,747.808c-10.811,6.525-19.847,15.387-29.995,22.782c-7.045,5.134-13.158,11.523-20.985,15.603"/>
	<path fill="none" stroke="#000000" stroke-width="5" stroke-linecap="round" stroke-linejoin="round" stroke-miterlimit="10" d="
		M1170.299,722.618c-54.226,42.176-41.637,32.398-50.98,39.585"/>
	<path fill="none" stroke="#000000" stroke-width="5" stroke-linecap="round" stroke-linejoin="round" stroke-miterlimit="10" d="
		M228.06,1445.94c-0.424,3.972,0.79,7.151,3.525,10.261c9.258,10.531,19.879,19.434,31.24,27.556
		c3.022,2.16,6.727,2.074,9.919,3.567"/>
	<path fill="none" stroke="#000000" stroke-width="5" stroke-linecap="round" stroke-linejoin="round" stroke-miterlimit="10" d="
		M1055.143,615.859c-2.807,7.484-10.252,10.156-15.62,14.965c-10.261,9.192-22.262,16.302-31.762,26.419"/>
	<path fill="none" stroke="#000000" stroke-width="5" stroke-linecap="round" stroke-linejoin="round" stroke-miterlimit="10" d="
		M1110.921,653.644c-54.335,43.17-42.463,33.706-50.381,40.185"/>
	<path fill="none" stroke="#000000" stroke-width="5" stroke-linecap="round" stroke-linejoin="round" stroke-miterlimit="10" d="
		M1130.114,672.837c-54.352,43.183-42.469,33.711-50.381,40.185"/>
	<path fill="none" stroke="#000000" stroke-width="5" stroke-linecap="round" stroke-linejoin="round" stroke-miterlimit="10" d="
		M1073.136,626.654c-16.337,15.222-29.522,22.592-48.581,40.185"/>
	<path fill="none" stroke="#000000" stroke-width="5" stroke-linecap="round" stroke-linejoin="round" stroke-miterlimit="10" d="
		M684.485,981.118c16.681,15.36,32.35,31.682,46.782,49.181"/>
	<path fill="none" stroke="#000000" stroke-width="5" stroke-linecap="round" stroke-linejoin="round" stroke-miterlimit="10" d="
		M1151.706,697.427c-16.594,13.195-33.187,26.39-49.781,39.585"/>
	<path fill="none" stroke="#000000" stroke-width="5" stroke-linecap="round" stroke-linejoin="round" stroke-miterlimit="10" d="
		M1090.529,575.674c3.784-3.442,2.826-7.698,1.092-11.345c-4.246-8.931-11.643-14.4-21.493-14.878
		c-9.592-0.466-14.828,8.543-10.728,16.596c3.326,6.533,7.942,11.667,15.483,13.991c3.99,1.23,7.147,1.572,10.247-1.366"/>
	<path fill="none" stroke="#000000" stroke-width="5" stroke-linecap="round" stroke-linejoin="round" stroke-miterlimit="10" d="
		M271.843,1386.563c-6.461-1.534-8.482-0.083-9.048,5.993c-0.998,10.703,9.414,22.826,18.641,28.201
		c2.849,1.66,6.076,1.678,8.971,1.058c3.944-0.845,3.749-3.87,3.893-7.652c0.387-10.152-9.143-25.063-18.867-27.567
		c-0.937-0.241-1.991-0.032-2.991-0.032"/>
	<path fill="none" stroke="#000000" stroke-width="5" stroke-linecap="round" stroke-linejoin="round" stroke-miterlimit="10" d="
		M1092.328,639.849c-50.042,39.898-47.479,37.307-48.581,39.585"/>
	<path fill="none" stroke="#000000" stroke-width="5" stroke-linecap="round" stroke-linejoin="round" stroke-miterlimit="10" d="
		M29.236,1298.997c-7.825,1.81-12.639,7.133-14.566,14.428c-5.537,20.963,19.147,23.208,25.707,20.466
		c18.473-7.721,9.275-27.689-10.241-34.894"/>
	<path fill="none" stroke="#000000" stroke-width="5" stroke-linecap="round" stroke-linejoin="round" stroke-miterlimit="10" d="
		M120.101,1225.825c17.112,20.012,49.923,57.542,60.577,73.172"/>
	<path fill="none" stroke="#000000" stroke-width="5" stroke-linecap="round" stroke-linejoin="round" stroke-miterlimit="10" d="
		M1136.112,567.277c6.067-7.751,14.103-5.813,22.199-4.867c30.51,3.564,53.503,21.191,74.963,42.652"/>
	<path fill="none" stroke="#000000" stroke-width="5" stroke-linecap="round" stroke-linejoin="round" stroke-miterlimit="10" d="
		M363.008,1525.11c19.393,23.791,38.785,47.582,58.178,71.373"/>
	<path fill="none" stroke="#000000" stroke-width="5" stroke-linecap="round" stroke-linejoin="round" stroke-miterlimit="10" d="
		M125.499,1306.194c-4.081-12.737,7.849-14.098,14.252-9.975c25.686,16.539,13.857,31.152,24.133,30.967"/>
	<path fill="none" stroke="#000000" stroke-width="5" stroke-linecap="round" stroke-linejoin="round" stroke-miterlimit="10" d="
		M372.005,1134.66c-10.193,11.254-24.409,20.644-34.182,29.395c-6.684,5.985-8.062,6.448-15.562,2.325
		c-9.191-5.053-19.398-7.965-28.249-13.692c-0.423-0.273-1.177-0.035-1.777-0.035"/>
	<path fill="none" stroke="#000000" stroke-width="5" stroke-linecap="round" stroke-linejoin="round" stroke-miterlimit="10" d="
		M213.066,1148.454c4.721,8.847,5.92,18.819,9.026,28.18c2.329,7.02,2.652,14.73,7.168,21.002"/>
	<path fill="none" stroke="#000000" stroke-width="5" stroke-linecap="round" stroke-linejoin="round" stroke-miterlimit="10" d="
		M1211.683,816.182c-9.196,5.115-16.75,12.454-25.164,18.629c-5.142,3.774-10.902,6.898-14.421,12.559"/>
	<path fill="none" stroke="#000000" stroke-width="5" stroke-linecap="round" stroke-linejoin="round" stroke-miterlimit="10" d="
		M240.055,1163.448c-0.275,7.864-1.904,15.553,1.441,23.541c1.58,3.773,0.911,10.205-2.265,13.423
		c-4.841,4.905-3.42,9.984-2.616,15.192c0.251,1.623,0.119,3.238,0.441,4.823"/>
	<path fill="none" stroke="#000000" stroke-width="5" stroke-linecap="round" stroke-linejoin="round" stroke-miterlimit="10" d="
		M234.058,1158.65c-4.118,9.497,1.593,25.732-2.391,38.988c-1.011,3.363,1.934,4.645,3.59,6.595"/>
	<path fill="none" stroke="#000000" stroke-width="5" stroke-linecap="round" stroke-linejoin="round" stroke-miterlimit="10" d="
		M632.305,1348.178c4.091,11.242,1.269,30.87,2.999,40.185"/>
	<path fill="none" stroke="#000000" stroke-width="5" stroke-linecap="round" stroke-linejoin="round" stroke-miterlimit="10" d="
		M1040.748,609.861c-2.004,5.087-7.171,6.854-10.873,10.108c-6.724,5.909-13.991,11.195-20.88,16.923
		c-2.958,2.46-7.872,2.457-9.031,7.156"/>
	<path fill="none" stroke="#000000" stroke-width="5" stroke-linecap="round" stroke-linejoin="round" stroke-miterlimit="10" d="
		M441.578,1484.925c-4.679,0.042-8.717-2.384-12.49-4.396c-6.895-3.677-14.493-5.856-21.028-10.106
		c-2.244-1.46-4.066-0.317-6.067-0.493"/>
	<path fill="none" stroke="#000000" stroke-width="5" stroke-linecap="round" stroke-linejoin="round" stroke-miterlimit="10" d="
		M402.893,1498.12c8.28-0.59,16.783-2.714,22.042,7.116c2.462,4.602,2.35,8.665,1.084,13.285
		c-2.128,7.768-4.625,15.266-11.431,20.383"/>
	<path fill="none" stroke="#000000" stroke-width="5" stroke-linecap="round" stroke-linejoin="round" stroke-miterlimit="10" d="
		M1337.634,619.457c3.669,3.493,2.769,8.322,3.535,12.606c1.331,7.438,0.649,14.882-1.224,22.158
		c-0.445,1.729-0.164,2.915,0.688,4.221"/>
	<path fill="none" stroke="#000000" stroke-width="5" stroke-linecap="round" stroke-linejoin="round" stroke-miterlimit="10" d="
		M260.447,1242.018c-1.434,7.64,0.393,15.2,0.472,22.793c0.054,5.174,1.9,10.593-1.072,15.593"/>
	<path fill="none" stroke="#000000" stroke-width="5" stroke-linecap="round" stroke-linejoin="round" stroke-miterlimit="10" d="
		M1396.412,618.857c9.29,7.174,28.502,9.923,34.213,16.772c0.623,0.747,2.089,1.082,2.294,1.842
		c2.276,8.425,8.71,8.854,15.673,8.375"/>
	<path fill="none" stroke="#000000" stroke-width="5" stroke-linecap="round" stroke-linejoin="round" stroke-miterlimit="10" d="
		M96.71,1333.183c-3.604,0.563-6.87-0.039-10.236-1.72c-8.879-4.433-17.953-8.476-26.95-12.675"/>
	<path fill="none" stroke="#000000" stroke-width="5" stroke-linecap="round" stroke-linejoin="round" stroke-miterlimit="10" d="
		M99.709,1337.382c6.213,1.824,5.34,10.461,20.402,16.769c3.35,1.403,6.41,1.589,9.646-1.103
		c9.711-8.077,15.579-18.344,17.186-30.68c1.029-7.895-6.722-17.967-16.102-15.814c-8.065,1.851-15.868,2.807-22.356,9.006
		c-2.66,2.541-8.173,1.54-11.176,5.028"/>
	<path fill="none" stroke="#000000" stroke-width="5" stroke-linecap="round" stroke-linejoin="round" stroke-miterlimit="10" d="
		M1266.861,698.627c0.4,3.799,0.067,7.872,1.365,11.333c2.13,5.678,0.057,8.725-4.286,12.156
		c-14.6,11.536-28.928,23.419-43.215,35.344c-3.235,2.7-6.849,4.736-10.243,7.141"/>
	<path fill="none" stroke="#000000" stroke-width="5" stroke-linecap="round" stroke-linejoin="round" stroke-miterlimit="10" d="
		M1445.593,627.254c-3.223-0.329-6.536-0.291-9.035-2.963c-0.512-0.548-1.164-0.898-2.375-0.755
		c-10.698,1.268-19.254-5.22-28.774-8.279c-8.306-2.669-16.022-6.729-24.012-10.146c-0.845-0.361-1.978-0.049-2.978-0.049"/>
	<path fill="none" stroke="#000000" stroke-width="5" stroke-linecap="round" stroke-linejoin="round" stroke-miterlimit="10" d="
		M95.511,1326.586c-5.435,0.98-8.815-2.556-32.443-13.677c-0.784-0.369-2.343-1.842-3.543-0.118"/>
	<path fill="none" stroke="#000000" stroke-width="5" stroke-linecap="round" stroke-linejoin="round" stroke-miterlimit="10" d="
		M1108.522,588.869c-4.423-0.135-7.157,1.127-10.571,5.073c-7.685,8.884-14.145,11.386-30.213,26.115"/>
	<path fill="none" stroke="#000000" stroke-width="5" stroke-linecap="round" stroke-linejoin="round" stroke-miterlimit="10" d="
		M373.204,1509.516c2.912,1.384,5.398,2.16,8.537-0.43c2.282-1.883,5.221-2.222,8.973-0.411
		c12.556,6.063,19.048,16.318,22.63,29.042c1.275,4.529-5.102,11.237-11.356,8.397c-3.518-1.597-8.373-1.323-10.629-4.332
		c-6.622-8.83-14.793-17.253-12.756-29.868"/>
	<path fill="none" stroke="#000000" stroke-width="5" stroke-linecap="round" stroke-linejoin="round" stroke-miterlimit="10" d="
		M607.115,1366.771c-12.693,6.919-37.202,29.542-50.062,37.689c-4.842,3.067-9.235,8.2-14.113,12.092"/>
	<path fill="none" stroke="#000000" stroke-width="5" stroke-linecap="round" stroke-linejoin="round" stroke-miterlimit="10" d="
		M109.905,1316.39c4.775,3.828,10.26,6.638,14.479,11.319c5.204,5.773,6.417,13.221,9.511,19.869"/>
	<path fill="none" stroke="#000000" stroke-width="5" stroke-linecap="round" stroke-linejoin="round" stroke-miterlimit="10" d="
		M271.843,1387.163c-1.788,4.532,1.102,7.794,2.967,11.412c4.073,7.902,9.741,13.864,18.624,16.178"/>
	<path fill="none" stroke="#000000" stroke-width="5" stroke-linecap="round" stroke-linejoin="round" stroke-miterlimit="10" d="
		M231.658,1099.873c-3.799,2.199-7.548,4.489-11.406,6.579c-8.161,4.42-8.47,9.921-4.188,18.012"/>
	<path fill="none" stroke="#000000" stroke-width="5" stroke-linecap="round" stroke-linejoin="round" stroke-miterlimit="10" d="
		M1157.703,798.189c-0.668,10.413-1.68,20.832,0.6,31.188"/>
	<path fill="none" stroke="#000000" stroke-width="5" stroke-linecap="round" stroke-linejoin="round" stroke-miterlimit="10" d="
		M328.221,1445.94c8.782,11.732,0.861,27.758,3.599,33.587"/>
	<path fill="none" stroke="#000000" stroke-width="5" stroke-linecap="round" stroke-linejoin="round" stroke-miterlimit="10" d="
		M1298.649,439.526c-2.405-0.408-3.328,1.392-4.173,3.012c-9.699,18.604-23.987,23.134-33.436,39.672
		c-7.193,12.59-18.266,21.322-28.323,31.131c-1.312,1.279-2.042,3.155-3.042,4.754"/>
	<path fill="none" stroke="#000000" stroke-width="5" stroke-linecap="round" stroke-linejoin="round" stroke-miterlimit="10" d="
		M1303.448,314.174c-0.275,7.803,3.688,14.666,4.901,22.175c5.804,35.894,0.544,31.6-4.256,38.434
		c-6.079,8.657-5.176,18.054-2.445,27.557"/>
	<path fill="none" stroke="#000000" stroke-width="5" stroke-linecap="round" stroke-linejoin="round" stroke-miterlimit="10" d="
		M1283.655,469.515c6.044,0.2,9.588,6.142,15.582,6.726c1.859,0.181,1.147,2.59,1.202,4.071c0.296,8.097-3.114,15.533-4.465,23.343
		c-0.34,1.961-1.294,4.265-0.76,5.996c0.929,3.007-0.357,4.03-2.498,5.538c-2.685,1.89-6.904,2.005-7.921,0.892
		c-5.731-6.273-14.297-8.011-20.489-13.94c2.771-4.35,5.458-9.042,8.649-13.362c1.428-1.934,2.428-3.699,2.306-6.067"/>
	<path fill="none" stroke="#000000" stroke-width="5" stroke-linecap="round" stroke-linejoin="round" stroke-miterlimit="10" d="
		M1313.044,417.934c2.731,4.532,1.442,9.715,1.533,14.4c0.265,13.628,1.779,27.171,2.043,40.78c0.04,2.052,0.575,4.268-1.177,5.997"
		/>
	<path fill="none" stroke="#000000" stroke-width="5" stroke-linecap="round" stroke-linejoin="round" stroke-miterlimit="10" d="
		M1292.052,312.375c3.294,5.34,3.314,11.615,3.948,17.421c1.001,9.167,3.607,17.938,5.039,26.964c0.214,1.351,0.43,2.57-1.793,2.451
		c-3.633-0.195-7.307,0.164-10.793-1.253"/>
	<path fill="none" stroke="#000000" stroke-width="5" stroke-linecap="round" stroke-linejoin="round" stroke-miterlimit="10" d="
		M712.674,1282.803c-11.795,5.933-39.013,31.159-62.53,48.371c-3.957,2.896-7.318,6.365-11.123,9.358
		c-1.621,1.276-3.431,1.221-4.917,2.248"/>
	<path fill="none" stroke="#000000" stroke-width="5" stroke-linecap="round" stroke-linejoin="round" stroke-miterlimit="10" d="
		M1683.702,1037.497c-4.798,3.799-9.538,7.675-14.421,11.36c-2.137,1.613-2.481,3.602-2.423,6.035
		c0.048,1.993-0.349,3.997-0.549,5.996"/>
	<path fill="none" stroke="#000000" stroke-width="5" stroke-linecap="round" stroke-linejoin="round" stroke-miterlimit="10" d="
		M432.582,497.704c-4.998,4.198-9.826,8.631-15.094,12.459c-1.91,1.388-1.526,1.653-2.3,10.932"/>
	<path fill="none" stroke="#000000" stroke-width="5" stroke-linecap="round" stroke-linejoin="round" stroke-miterlimit="10" d="
		M29.536,1298.397c4.439-7.311,9.035-8.141,15.648-3.678c6.143,4.145,10.243,9.707,13.099,16.292
		c2.527,5.825-0.812,12.517-7.155,14.976"/>
	<path fill="none" stroke="#000000" stroke-width="5" stroke-linecap="round" stroke-linejoin="round" stroke-miterlimit="10" d="
		M1001.763,639.25c-2.491-4.352-0.462-9.262-1.611-13.842c-0.271-1.081,1.504-3.401,2.862-4.043
		c17.567-8.297,17.324-19.57,28.119-16.241c28.751,8.866,45.42,20.742,61.548,33.064c24.561,18.764,48.403,40.909,75.172,78.465
		c43.464,60.98,44.855,99.233,48.593,123.525c1.33,8.646,0.601,17.252-1.165,25.785"/>
	<path fill="none" stroke="#000000" stroke-width="5" stroke-linecap="round" stroke-linejoin="round" stroke-miterlimit="10" d="
		M1214.682,835.374c-9.257,5.28-17.336,12.024-24.591,19.792"/>
	<path fill="none" stroke="#000000" stroke-width="5" stroke-linecap="round" stroke-linejoin="round" stroke-miterlimit="10" d="
		M750.46,1251.615c-16.109,9.729-22.867,21.921-34.187,23.391"/>
	<path fill="none" stroke="#000000" stroke-width="5" stroke-linecap="round" stroke-linejoin="round" stroke-miterlimit="10" d="
		M1313.644,438.327c-2.983,1.736-4.805-1.174-7.196-1.804c-4.29-1.13-6.287,0.839-6.056,5.406
		c0.669,13.22-1.015,16.823,1.257,22.788"/>
	<path fill="none" stroke="#000000" stroke-width="5" stroke-linecap="round" stroke-linejoin="round" stroke-miterlimit="10" d="
		M1284.855,431.729c-0.68,7.985-2.734,15.936-0.6,23.991"/>
	<path fill="none" stroke="#000000" stroke-width="5" stroke-linecap="round" stroke-linejoin="round" stroke-miterlimit="10" d="
		M1226.077,724.417c1.237,7.871,2.21,15.797,4.798,23.391"/>
	<path fill="none" stroke="#000000" stroke-width="5" stroke-linecap="round" stroke-linejoin="round" stroke-miterlimit="10" d="
		M1044.947,44.278c-5.798,4.998-11.875,9.714-17.292,15.096c-8.047,7.996-11.998-0.774-19.294,1.097"/>
	<path fill="none" stroke="#000000" stroke-width="5" stroke-linecap="round" stroke-linejoin="round" stroke-miterlimit="10" d="
		M1101.325,738.811c10.363,12.169,19.01,25.538,27.685,38.923c5.195,8.015,9.067,16.674,13.699,24.953"/>
	<path fill="none" stroke="#000000" stroke-width="5" stroke-linecap="round" stroke-linejoin="round" stroke-miterlimit="10" d="
		M1077.934,562.479c-0.186,3.055,0.269,5.511,2.902,7.903c6.688,6.078,12.892,12.689,19.289,19.086"/>
	<path fill="none" stroke="#000000" stroke-width="5" stroke-linecap="round" stroke-linejoin="round" stroke-miterlimit="10" d="
		M366.607,1334.983c-7.397,5.798-14.794,11.595-22.191,17.393"/>
	<path fill="none" stroke="#000000" stroke-width="5" stroke-linecap="round" stroke-linejoin="round" stroke-miterlimit="10" d="
		M1207.484,741.21c1.097,7.414,0.694,15.071,3.599,22.192"/>
	<path fill="none" stroke="#000000" stroke-width="5" stroke-linecap="round" stroke-linejoin="round" stroke-miterlimit="10" d="
		M707.276,962.526c-7.197,5.998-14.395,11.995-21.592,17.993"/>
	<path fill="none" stroke="#000000" stroke-width="5" stroke-linecap="round" stroke-linejoin="round" stroke-miterlimit="10" d="
		M397.195,1462.734c-5.455,2.084-9.278-2.044-13.818-3.528c-2.277-0.744-4.414-3.037-7.174-1.271"/>
	<path fill="none" stroke="#000000" stroke-width="5" stroke-linecap="round" stroke-linejoin="round" stroke-miterlimit="10" d="
		M194.473,1472.33c-6.997,5.998-13.995,11.995-20.992,17.993"/>
	<path fill="none" stroke="#000000" stroke-width="5" stroke-linecap="round" stroke-linejoin="round" stroke-miterlimit="10" d="
		M264.046,1285.802c-4.37,6.915,2.154,13.408-2.999,20.392"/>
	<path fill="none" stroke="#000000" stroke-width="5" stroke-linecap="round" stroke-linejoin="round" stroke-miterlimit="10" d="
		M1318.442,488.707c0.408,9.265-5.195,13.284-13.166,15.689c-3.74,1.128-5.121,5.834-9.025,7.102"/>
	<path fill="none" stroke="#000000" stroke-width="5" stroke-linecap="round" stroke-linejoin="round" stroke-miterlimit="10" d="
		M1246.469,711.822c1.453,6.753,1.104,13.823,3.599,20.392"/>
	<path fill="none" stroke="#000000" stroke-width="5" stroke-linecap="round" stroke-linejoin="round" stroke-miterlimit="10" d="
		M1313.644,270.391c3.599-2.599,7.287-5.084,10.763-7.838c2.213-1.753,5.295-2.08,6.392-0.403c1.451,2.217,1.158,5.555-1.567,7.634
		c-3.576,2.728-7.192,5.405-10.79,8.104"/>
	<path fill="none" stroke="#000000" stroke-width="5" stroke-linecap="round" stroke-linejoin="round" stroke-miterlimit="10" d="
		M1301.648,473.113c4.644,0.76,8.336,3.74,12.535,5.538c4.141,1.773,4.264,5.111,0.622,8.213
		c-4.513,3.843-6.573,9.378-10.152,13.844c-0.936,1.167-0.097,2.394-0.006,3.594"/>
	<path fill="none" stroke="#000000" stroke-width="5" stroke-linecap="round" stroke-linejoin="round" stroke-miterlimit="10" d="
		M1310.645,368.753c2.464,7.286,2.37,15.09,0.671,22.063c-0.875,3.594-5.236,7.541-8.52,10.874
		c-1.933,1.962-2.485,4.108-2.348,6.648"/>
	<path fill="none" stroke="#000000" stroke-width="5" stroke-linecap="round" stroke-linejoin="round" stroke-miterlimit="10" d="
		M1280.656,462.317c3.548,10.163,3.597,14.374-3.778,17.582c-6.809,2.961-11.606,9.717-19.614,10.008"/>
	<path fill="none" stroke="#000000" stroke-width="5" stroke-linecap="round" stroke-linejoin="round" stroke-miterlimit="10" d="
		M1301.048,409.538c-1.638,8.997,0.495,17.993,0,26.99"/>
	<path fill="none" stroke="#000000" stroke-width="5" stroke-linecap="round" stroke-linejoin="round" stroke-miterlimit="10" d="
		M1311.844,392.744c2.307,7.294,2.44,15.11,0.723,22.074c-1.128,4.572-5.499,9.214-10.319,12.113"/>
	<path fill="none" stroke="#000000" stroke-width="5" stroke-linecap="round" stroke-linejoin="round" stroke-miterlimit="10" d="
		M1313.644,449.722c-5.463,4.649-6.953,12.175-12.487,16.92c-2.641,2.264,1.729,6.601-1.308,9.47"/>
	<path fill="none" stroke="#000000" stroke-width="5" stroke-linecap="round" stroke-linejoin="round" stroke-miterlimit="10" d="
		M234.657,1132.26c-13.736,8.394-14.398,9.354-16.794,7.797"/>
	<path fill="none" stroke="#000000" stroke-width="5" stroke-linecap="round" stroke-linejoin="round" stroke-miterlimit="10" d="
		M1377.819,603.263c1.468,3.076-4.591,4.882-1.697,7.691c2.966,2.879,6.991,4.272,11.293,4.304"/>
	<path fill="none" stroke="#000000" stroke-width="5" stroke-linecap="round" stroke-linejoin="round" stroke-miterlimit="10" d="
		M1283.055,475.512c5.295,2.453,10.301,5.614,16.194,6.597"/>
	<path fill="none" stroke="#000000" stroke-width="5" stroke-linecap="round" stroke-linejoin="round" stroke-miterlimit="10" d="
		M1449.791,636.251c-5.398,0.4-10.796,0.8-16.194,1.2"/>
	<path fill="none" stroke="#000000" stroke-width="5" stroke-linecap="round" stroke-linejoin="round" stroke-miterlimit="10" d="
		M232.258,1098.673c1.826,7.314,9.702,7.822,9.596,17.393"/>
	<path fill="none" stroke="#000000" stroke-width="5" stroke-linecap="round" stroke-linejoin="round" stroke-miterlimit="10" d="
		M1284.255,516.897c-3.399,4.998-6.797,9.996-10.196,14.994"/>
	<path fill="none" stroke="#000000" stroke-width="5" stroke-linecap="round" stroke-linejoin="round" stroke-miterlimit="10" d="
		M159.686,1327.786c-3.746,5.408-8.765,5.726-14.394,3.599"/>
	<path fill="none" stroke="#000000" stroke-width="5" stroke-linecap="round" stroke-linejoin="round" stroke-miterlimit="10" d="
		M1301.048,359.757c0.061,3.65-1.679,7.035-1.312,10.807c0.234,2.404,0.524,4.602,1.912,6.587"/>
	<path fill="none" stroke="#000000" stroke-width="5" stroke-linecap="round" stroke-linejoin="round" stroke-miterlimit="10" d="
		M1295.051,382.548c-0.665,7.823-11.052,9.313-9.289,21.036c0.721,4.792-2.213,9.952,0.292,14.95"/>
	<path fill="none" stroke="#000000" stroke-width="5" stroke-linecap="round" stroke-linejoin="round" stroke-miterlimit="10" d="
		M401.393,1498.72c-1.721,2.555-4.887,2.288-7.145,3.683c-2.009,1.241-4.81,1.81-5.45,4.714"/>
	<path fill="none" stroke="#000000" stroke-width="5" stroke-linecap="round" stroke-linejoin="round" stroke-miterlimit="10" d="
		M1002.363,599.665c5.961,2.421,12.757,0.458,18.616,3.555c0.944,0.499,2.244,0.353,2.376,1.843"/>
	<path fill="none" stroke="#000000" stroke-width="5" stroke-linecap="round" stroke-linejoin="round" stroke-miterlimit="10" d="
		M998.764,644.048c3.955,0.82-0.066,4.056,2.999,13.195"/>
	<path fill="none" stroke="#000000" stroke-width="5" stroke-linecap="round" stroke-linejoin="round" stroke-miterlimit="10" d="
		M342.016,1353.576c-4.198,3.199-8.397,6.397-12.595,9.596"/>
	<path fill="none" stroke="#000000" stroke-width="5" stroke-linecap="round" stroke-linejoin="round" stroke-miterlimit="10" d="
		M1294.451,360.357c0.372,1.816-0.934,3.365-1.88,4.094c-9.196,7.081-5.289,17.546-7.021,26.513
		c-0.127,0.659,1.104,1.581,1.704,2.381"/>
	<path fill="none" stroke="#000000" stroke-width="5" stroke-linecap="round" stroke-linejoin="round" stroke-miterlimit="10" d="
		M220.863,1142.457c2.592,3.803,6.288,6.675,7.951,11.341c1.591,4.463,5.449,5.12,9.432,2.439c2.418-1.627,4.516-3.884,7.807-3.584"
		/>
	<path fill="none" stroke="#000000" stroke-width="5" stroke-linecap="round" stroke-linejoin="round" stroke-miterlimit="10" d="
		M1295.051,434.128c-1.702,0.659-2.9-0.8-4.137-1.339c-2.603-1.135-6.881-0.367-7.188-4.664c-0.28-3.93,0.746-7.831,4.19-10.097
		c2.866-1.885,3.83-4.984,5.945-7.283c1.468-1.596,2.594-3.088,1.233-5.431c-1.306-2.248-3.242-0.797-4.85-1.129
		c-1.151-0.238-2.39-0.046-3.589-0.046"/>
	<path fill="none" stroke="#000000" stroke-width="5" stroke-linecap="round" stroke-linejoin="round" stroke-miterlimit="10" d="
		M210.067,1460.335c-4.62,2.422-7.978,6.421-11.995,9.596"/>
	<path fill="none" stroke="#000000" stroke-width="5" stroke-linecap="round" stroke-linejoin="round" stroke-miterlimit="10" d="
		M697.08,1292.399c-2.15-4.253-6.13-4.618-10.196-4.798"/>
	<path fill="none" stroke="#000000" stroke-width="5" stroke-linecap="round" stroke-linejoin="round" stroke-miterlimit="10" d="
		M1312.444,409.538c-5.398-0.4-10.796-0.8-16.194-1.2"/>
	<path fill="none" stroke="#000000" stroke-width="5" stroke-linecap="round" stroke-linejoin="round" stroke-miterlimit="10" d="
		M1295.651,342.363c-2.603,2.257-2.753,6.59-6.598,7.797"/>
	<path fill="none" stroke="#000000" stroke-width="5" stroke-linecap="round" stroke-linejoin="round" stroke-miterlimit="10" d="
		M1295.651,339.365c-1,0.643-2.144-0.151-2.975-0.236c-4.763-0.484-5.206,2.097-4.816,5.633c1.218,11.065-4.225,19.347,0.594,23.392
		"/>
	<path fill="none" stroke="#000000" stroke-width="5" stroke-linecap="round" stroke-linejoin="round" stroke-miterlimit="10" d="
		M1308.845,350.16c-2.904,1.753-3.532,5.592-6.598,7.197"/>
	<path fill="none" stroke="#000000" stroke-width="5" stroke-linecap="round" stroke-linejoin="round" stroke-miterlimit="10" d="
		M1301.648,385.547c2.999,0.4,5.998,0.8,8.996,1.2"/>
	<path fill="none" stroke="#000000" stroke-width="5" stroke-linecap="round" stroke-linejoin="round" stroke-miterlimit="10" d="
		M1010.16,602.064c-1.439,2.877,1.759-0.042-13.195,12.295"/>
	<path fill="none" stroke="#000000" stroke-width="5" stroke-linecap="round" stroke-linejoin="round" stroke-miterlimit="10" d="
		M1442.594,618.258c4.91,5.729,7.351,13.18,8.325,19.89c0.666,4.586-0.422,10.773-1.728,16.096"/>
	<path fill="none" stroke="#000000" stroke-width="5" stroke-linecap="round" stroke-linejoin="round" stroke-miterlimit="10" d="
		M1299.249,381.348c-4.138,0.994-8.033-0.436-11.995-1.2"/>
	<path fill="none" stroke="#000000" stroke-width="5" stroke-linecap="round" stroke-linejoin="round" stroke-miterlimit="10" d="
		M1301.048,286.585c-2.32,4.877-6.487,7.908-10.796,10.796"/>
	<path fill="none" stroke="#000000" stroke-width="5" stroke-linecap="round" stroke-linejoin="round" stroke-miterlimit="10" d="
		M606.515,892.352c-1.857,1.934-1.015,4.359-1.2,6.597"/>
	<path fill="none" stroke="#000000" stroke-width="5" stroke-linecap="round" stroke-linejoin="round" stroke-miterlimit="10" d="
		M455.973,1069.884c-7.746,2.142-13.826,6.622-17.261,13.858c-1.629,3.433-2.885,7.745-0.061,11.276
		c3.019,3.774,7.335,2.951,11.314,1.82c8.415-2.392,13.998-7.936,16.773-16.168c2.48-7.355-0.838-10.786-10.166-10.786"/>
</g>
</svg>
